<mxfile host="65bd71144e">
    <diagram id="H-Z5Ft3k4iSZzPwlytuU" name="Page-1">
        <mxGraphModel dx="501" dy="1464" grid="1" gridSize="10" guides="1" tooltips="1" connect="1" arrows="1" fold="1" page="1" pageScale="1" pageWidth="1654" pageHeight="1169" math="0" shadow="0">
            <root>
                <mxCell id="0"/>
                <mxCell id="1" parent="0"/>
                <mxCell id="2" value="&lt;p class=&quot;MsoNormal&quot;&gt;UTILISATEUR(&lt;u&gt;id_utilisateur&lt;/u&gt;, email, photo, motDePasse,&lt;br&gt;telephone, tag, type, #id_annonce, #id_&lt;u&gt; candidature&lt;/u&gt;&lt;/p&gt;&lt;p class=&quot;MsoNormal&quot;&gt;ETUDIANT(#&lt;u&gt;id_etudiant&lt;/u&gt;, nom, prenom, dateDeNaiss, niveau,&lt;br&gt;type_recherche, zone_recherche, cv)&lt;/p&gt;&lt;p class=&quot;MsoNormal&quot;&gt;ENTREPRISE(#&lt;u&gt;id_entreprise&lt;/u&gt;, siren, nom, interlocuteur )&lt;/p&gt;&lt;p class=&quot;MsoNormal&quot;&gt;ADRESSE(&lt;u&gt;id_adresse&lt;/u&gt;, numéro, rue, code_postal, Ville)&lt;/p&gt;&lt;p class=&quot;MsoNormal&quot;&gt;UTILISATEUR_ADRESSE(#id_utilisateur, #id_adresse)&lt;/p&gt;&lt;p class=&quot;MsoNormal&quot;&gt;ANNONCE(&lt;u&gt;id_annonce&lt;/u&gt;, intitulé, auteur,&lt;br&gt;type_de_contrat, description, Tag)&lt;/p&gt;&lt;p class=&quot;MsoNormal&quot;&gt;CANDIDATURE(&lt;u&gt;id_candidature&lt;/u&gt;, intitulé,&lt;br&gt;type_de_contrat, description, Tag )&lt;/p&gt;&lt;p class=&quot;MsoNormal&quot;&gt;&lt;span lang=&quot;EN-US&quot;&gt;MATCH(id_match,&lt;br&gt;date, id_etudiant, id_entreprise)&lt;/span&gt;&lt;/p&gt;&lt;p class=&quot;MsoNormal&quot;&gt;UTILISATEUR_MATCH(#id_utilisateur, #id_match)&lt;/p&gt;&lt;p class=&quot;MsoNormal&quot;&gt;MESSAGE(&lt;u&gt;id_message&lt;/u&gt;, date, contenu, #id_match, #id_utilisateur)&lt;/p&gt;" style="text;html=1;align=left;verticalAlign=middle;resizable=0;points=[];autosize=1;strokeColor=none;fillColor=none;" vertex="1" parent="1">
                    <mxGeometry x="80" y="-1120" width="370" height="350" as="geometry"/>
                </mxCell>
            </root>
        </mxGraphModel>
    </diagram>
</mxfile>